<?xml version="1.0" encoding="UTF-8" standalone="no"?>
<svg
   xmlns:dc="http://purl.org/dc/elements/1.1/"
   xmlns:cc="http://creativecommons.org/ns#"
   xmlns:rdf="http://www.w3.org/1999/02/22-rdf-syntax-ns#"
   xmlns:svg="http://www.w3.org/2000/svg"
   xmlns="http://www.w3.org/2000/svg"
   xmlns:sodipodi="http://sodipodi.sourceforge.net/DTD/sodipodi-0.dtd"
   xmlns:inkscape="http://www.inkscape.org/namespaces/inkscape"
   width="32"
   height="32"
   viewBox="0 0 32 32"
   version="1.1"
   id="svg120"
   sodipodi:docname="stick-active.svg"
   inkscape:version="1.0 (4035a4fb49, 2020-05-01)">
  <metadata
     id="metadata126">
    <rdf:RDF>
      <cc:Work
         rdf:about="">
        <dc:format>image/svg+xml</dc:format>
        <dc:type
           rdf:resource="http://purl.org/dc/dcmitype/StillImage" />
      </cc:Work>
    </rdf:RDF>
  </metadata>
  <defs
     id="defs124" />
  <sodipodi:namedview
     pagecolor="#ffffff"
     bordercolor="#666666"
     borderopacity="1"
     objecttolerance="10"
     gridtolerance="10"
     guidetolerance="10"
     inkscape:pageopacity="0"
     inkscape:pageshadow="2"
     inkscape:window-width="1920"
     inkscape:window-height="1007"
     id="namedview122"
     showgrid="false"
     inkscape:zoom="14.75"
     inkscape:cx="4.9259692"
     inkscape:cy="17.058115"
     inkscape:window-x="0"
     inkscape:window-y="0"
     inkscape:window-maximized="1"
     inkscape:current-layer="svg120"
     inkscape:document-rotation="0" />
  <rect
     width="32"
     height="32"
     fill="#E0E0E0"
     id="rect110"
     style="fill:#474747;fill-opacity:1" />
  <rect
     width="32"
     height="1"
     fill="#FFFFFF"
     fill-opacity="0.4"
     id="rect112"
     style="fill:#000000;fill-opacity:1" />
  <g
     style="fill:#ffffff;fill-opacity:1;opacity:1"
     fill="#000000"
     opacity="0.6"
     id="g118">
    <circle
       style="fill:#ffffff;fill-opacity:1"
       cx="16"
       cy="16"
       r="12"
       opacity="0"
       id="circle114" />
    <path
       style="fill:#ffffff;fill-opacity:1"
       d="m16 10a6 6 0 0 0 -6 6 6 6 0 0 0 6 6 6 6 0 0 0 6 -6 6 6 0 0 0 -6 -6zm0 2a4 4 0 0 1 4 4 4 4 0 0 1 -4 4 4 4 0 0 1 -4 -4 4 4 0 0 1 4 -4z"
       id="path116" />
  </g>
  <rect
     y="1"
     x="0"
     width="32"
     height="1"
     fill="#FFFFFF"
     fill-opacity="0.4"
     id="rect166"
     style="fill:#ffffff;fill-opacity:1;opacity:0.2" />
  <rect
     y="31"
     x="0"
     width="32"
     height="1"
     fill="#FFFFFF"
     fill-opacity="0.4"
     id="rect166-2"
     style="fill:#000000;fill-opacity:1" />
  <rect
     y="30"
     x="0"
     width="32"
     height="1"
     fill="#FFFFFF"
     fill-opacity="0.4"
     id="rect166-3"
     style="fill:#ffffff;fill-opacity:1;opacity:0.2" />
</svg>
